<svg width="173" height="35" viewBox="0 0 173 35" fill="none" xmlns="http://www.w3.org/2000/svg">
<g clip-path="url(#clip0_882_35867)">
<path d="M45.8891 28.8167C45.9317 29.1218 45.9014 29.4326 45.8008 29.7238C45.7002 30.0151 45.532 30.2785 45.3099 30.4926C44.8866 30.7748 44.38 30.9058 43.8725 30.8642H43.0504C42.098 30.9504 41.1444 30.7132 40.3441 30.1911C40.0469 29.8898 39.8202 29.5267 39.6802 29.1278C39.5402 28.7289 39.4904 28.3041 39.5342 27.8838V14.4438C39.4925 14.1402 39.5214 13.831 39.6188 13.5404C39.7161 13.2497 39.8794 12.9854 40.0958 12.7678C40.5251 12.4805 41.0358 12.3389 41.5522 12.364L42.3729 12.4016C43.3257 12.3158 44.2796 12.5529 45.0806 13.0747C45.3764 13.377 45.6017 13.7406 45.7405 14.1396C45.8793 14.5386 45.9282 14.9633 45.8837 15.3834L45.8891 28.8167ZM40.2199 5.04493C40.9085 4.43352 41.7984 4.0957 42.7204 4.0957C43.6424 4.0957 44.5323 4.43352 45.221 5.04493C45.8439 5.69008 46.1918 6.55085 46.1918 7.44646C46.1918 8.34208 45.8439 9.20285 45.221 9.848C44.5323 10.4594 43.6424 10.7972 42.7204 10.7972C41.7984 10.7972 40.9085 10.4594 40.2199 9.848C39.5969 9.20285 39.249 8.34208 39.249 7.44646C39.249 6.55085 39.5969 5.69008 40.2199 5.04493Z" fill="#FFCD00"/>
<path d="M56.4906 21.5478V28.5478C56.5361 28.8844 56.4967 29.2269 56.376 29.5445C56.2554 29.862 56.0572 30.1445 55.7995 30.3664C55.3308 30.6749 54.7738 30.8223 54.2134 30.7864L53.4293 30.7474C52.4635 30.8435 51.4954 30.5877 50.704 30.0272C50.4042 29.6694 50.1803 29.2547 50.0457 28.8081C49.9112 28.3616 49.8688 27.8924 49.9212 27.4291V8.15758C49.8747 7.82896 49.9079 7.49407 50.018 7.18091C50.1282 6.86775 50.3121 6.58549 50.5542 6.3578C51.0186 6.05249 51.5667 5.89863 52.1227 5.91758L52.9434 5.958C53.909 5.86155 54.8769 6.11689 55.6685 6.67684C55.9685 7.03456 56.1926 7.44918 56.3274 7.89573C56.4622 8.34227 56.505 8.81147 56.4528 9.27491V15.6301L63.2841 7.19512C63.498 6.87707 63.7869 6.61602 64.1252 6.43487C64.4636 6.25372 64.8412 6.15794 65.2252 6.15585C65.3758 6.14459 65.5271 6.15827 65.6732 6.19627C66.5847 6.29142 67.4391 6.68474 68.1029 7.31492C68.3862 7.60543 68.6081 7.94965 68.7556 8.32724C68.9031 8.70484 68.973 9.10813 68.9614 9.51318C68.966 10.1876 68.8058 10.853 68.4944 11.4516C68.0602 12.2175 67.5269 12.923 66.9084 13.5502L62.242 18.5472L65.2292 22.0243L66.2376 23.1847L68.7765 26.1031C69.0277 26.3804 69.241 26.6895 69.4109 27.0225C69.5377 27.2982 69.6018 27.5984 69.5986 27.9016C69.6082 28.1501 69.5572 28.3973 69.4501 28.6218C69.2868 29.1096 69.0043 29.549 68.6281 29.9006C68.2952 30.2175 67.9026 30.4656 67.473 30.6303C67.0435 30.7951 66.5855 30.8732 66.1255 30.8605C65.3422 30.8846 64.5694 30.6761 63.9051 30.2614C63.0849 29.6555 62.3614 28.9293 61.7589 28.1076L56.4906 21.5478Z" fill="#FFCD00"/>
<path d="M90.1636 28.8161C90.2058 29.1287 90.1699 29.4469 90.059 29.7424C89.9481 30.0378 89.7656 30.3014 89.528 30.5095C89.0995 30.7965 88.5879 30.9342 88.0729 30.9013L87.3265 30.8636C86.3741 30.9497 85.4204 30.7126 84.6201 30.1905C84.3243 29.8885 84.0991 29.5251 83.9605 29.1262C83.8219 28.7274 83.7733 28.303 83.8183 27.8832V19.6178C83.8183 17.7808 82.9347 16.8622 81.1673 16.8622C80.2915 16.8449 79.4273 17.064 78.6661 17.4963V28.8148C78.7084 29.1273 78.6726 29.4454 78.562 29.7408C78.4513 30.0363 78.2692 30.2999 78.0317 30.5082C77.6027 30.7951 77.0908 30.9328 76.5753 30.8999L75.8288 30.8623C74.8764 30.9484 73.9227 30.7112 73.1224 30.1892C72.8268 29.8871 72.6017 29.5237 72.4631 29.1249C72.3246 28.726 72.2758 28.3015 72.3206 27.8818V8.0032C72.2785 7.69991 72.3072 7.39102 72.4043 7.10056C72.5015 6.81011 72.6646 6.54589 72.8808 6.32856C73.3101 6.04117 73.8208 5.89956 74.3373 5.92473L75.1593 5.96245C76.1117 5.8764 77.0653 6.11357 77.8657 6.63552C78.1616 6.93742 78.3871 7.30076 78.5259 7.69961C78.6647 8.09846 78.7135 8.52298 78.6687 8.94282V12.5895C79.2283 12.3909 79.8025 12.2352 80.3858 12.1237C81.0243 11.9904 81.6745 11.9214 82.3268 11.9178C84.4392 11.7747 86.5254 12.4497 88.1511 13.8024C88.8537 14.5186 89.3966 15.3748 89.7441 16.3148C90.0917 17.2548 90.236 18.2575 90.1678 19.257L90.1636 28.8161Z" fill="#FFCD00"/>
<path d="M100.15 24.9824C100.421 25.3764 100.787 25.6956 101.214 25.9103C101.642 26.1249 102.117 26.2281 102.596 26.2101C103.069 26.2308 103.54 26.1285 103.962 25.9133C104.385 25.6981 104.743 25.3774 105.004 24.9824C105.623 23.9374 105.916 22.7319 105.845 21.5201C105.919 20.3117 105.619 19.1098 104.986 18.0766C104.704 17.7 104.337 17.3941 103.915 17.1835C103.494 16.9729 103.028 16.8632 102.557 16.8632C102.085 16.8632 101.62 16.9729 101.198 17.1835C100.776 17.3941 100.41 17.7 100.127 18.0766C99.5604 19.1407 99.2655 20.3277 99.2688 21.5325C99.2721 22.7374 99.5734 23.9228 100.146 24.9837M109.704 28.6183C108.741 29.4959 107.613 30.1735 106.384 30.6114C105.156 31.0494 103.852 31.239 102.55 31.1692C101.258 31.235 99.9668 31.0379 98.7541 30.5898C97.5413 30.1418 96.4328 29.4522 95.4959 28.5631C94.5658 27.6512 93.8415 26.5518 93.3715 25.3384C92.9015 24.125 92.6967 22.8255 92.7706 21.5268C92.7548 20.1726 92.9952 18.8276 93.4793 17.5624C93.9211 16.4051 94.6091 15.3572 95.4959 14.4905C96.4436 13.6193 97.5548 12.9437 98.7654 12.5027C99.9761 12.0617 101.262 11.8638 102.55 11.9207C103.899 11.9095 105.239 12.1374 106.508 12.5937C107.678 13.011 108.748 13.6707 109.645 14.5295C110.528 15.3948 111.21 16.4436 111.641 17.6014C112.111 18.8575 112.345 20.189 112.332 21.5295C112.408 22.8288 112.213 24.1297 111.76 25.3503C111.308 26.571 110.607 27.685 109.701 28.6224" fill="#FFCD00"/>
<path d="M131.602 26.2834C131.849 26.4921 132.052 26.7476 132.199 27.035C132.347 27.3225 132.436 27.6361 132.461 27.958C132.454 28.2128 132.404 28.4647 132.312 28.7024C132.12 29.3786 131.699 29.9673 131.12 30.368C130.541 30.7687 129.841 30.9564 129.139 30.8993C128.403 30.9152 127.677 30.7215 127.048 30.3407C126.264 29.7939 125.572 29.128 124.995 28.3672L121.299 23.7512V28.8155C121.342 29.1204 121.311 29.431 121.211 29.7221C121.11 30.0131 120.942 30.2763 120.72 30.4901C120.298 30.7732 119.791 30.9047 119.284 30.863H118.462C117.509 30.9487 116.556 30.7116 115.755 30.1899C115.459 29.8879 115.234 29.5243 115.095 29.1252C114.956 28.7261 114.907 28.3013 114.952 27.8812V8.03894C114.911 7.73124 114.942 7.41826 115.042 7.12447C115.143 6.83067 115.31 6.56404 115.531 6.34548C115.951 6.05007 116.456 5.89973 116.969 5.91741L117.79 5.95513C118.742 5.86877 119.697 6.10595 120.497 6.6282C120.793 6.93022 121.018 7.29361 121.157 7.69246C121.295 8.0913 121.344 8.51576 121.299 8.9355V18.7624L126.749 13.1772C126.97 12.9127 127.243 12.6967 127.552 12.5429C127.86 12.389 128.197 12.3007 128.542 12.2834L129.102 12.3574C129.897 12.5049 130.634 12.8725 131.23 13.4182C131.479 13.6483 131.677 13.9276 131.812 14.2384C131.947 14.5492 132.016 14.8847 132.014 15.2234C132.026 15.7966 131.863 16.36 131.547 16.8387C131.082 17.4592 130.537 18.0163 129.927 18.4959L128.807 19.4637L126.647 21.3255L131.602 26.2834Z" fill="#FFCD00"/>
<path d="M153.066 28.8161C153.108 29.1286 153.073 29.4467 152.962 29.7421C152.851 30.0376 152.669 30.3012 152.432 30.5095C152.003 30.7965 151.491 30.9342 150.975 30.9013L150.229 30.8636C149.276 30.95 148.322 30.7129 147.521 30.1905C147.226 29.8884 147 29.525 146.862 29.1262C146.723 28.7273 146.675 28.3029 146.719 27.8832V19.6178C146.719 17.7808 145.836 16.8622 144.068 16.8622C143.193 16.8449 142.328 17.064 141.567 17.4963V28.8148C141.609 29.1274 141.573 29.4456 141.463 29.7411C141.352 30.0365 141.169 30.3001 140.931 30.5082C140.503 30.795 139.991 30.9327 139.476 30.8999L138.729 30.8623C137.778 30.947 136.827 30.7099 136.029 30.1892C135.733 29.8873 135.507 29.524 135.369 29.1251C135.23 28.7262 135.181 28.3017 135.226 27.8818V8.0032C135.184 7.6998 135.213 7.3908 135.31 7.10032C135.407 6.80984 135.571 6.5457 135.787 6.32856C136.216 6.04119 136.726 5.89956 137.242 5.92473L138.064 5.96245C139.017 5.8764 139.97 6.11357 140.771 6.63552C141.067 6.93754 141.292 7.30093 141.43 7.69978C141.569 8.09862 141.618 8.52308 141.573 8.94282V12.5895C142.133 12.391 142.707 12.2353 143.291 12.1237C143.929 11.9904 144.58 11.9215 145.232 11.9178C147.344 11.7748 149.43 12.4498 151.055 13.8024C151.758 14.5184 152.301 15.3745 152.648 16.3146C152.996 17.2547 153.14 18.2574 153.072 19.257L153.066 28.8161Z" fill="#FFCD00"/>
<path d="M165.813 26.4157C166.188 26.3674 166.549 26.2476 166.878 26.063V23.0839L164.191 23.3074C162.597 23.4061 161.8 23.9271 161.8 24.8703C161.8 25.9867 162.646 26.5454 164.338 26.5463C164.832 26.5452 165.326 26.5001 165.812 26.4116M170.685 13.642C171.457 14.2363 172.072 15.0102 172.475 15.896C172.879 16.7818 173.058 17.7527 172.998 18.7237V27.0699C173.013 27.593 172.863 28.1074 172.569 28.5413C172.193 29.0284 171.715 29.4288 171.169 29.7151C169.064 30.8016 166.704 31.3033 164.337 31.1676C162.096 31.3014 159.866 30.7631 157.935 29.6222C157.199 29.1262 156.605 28.449 156.209 27.6562C155.813 26.8634 155.63 25.9821 155.676 25.0978C155.629 24.3686 155.742 23.6379 156.006 22.9564C156.271 22.2749 156.68 21.6588 157.207 21.1509C158.569 20.1008 160.227 19.502 161.948 19.4385L166.839 18.9176V18.6551C166.839 17.3143 165.607 16.6439 163.143 16.6439C161.895 16.6681 160.654 16.843 159.448 17.1649C159.096 17.2655 158.734 17.3278 158.368 17.3507C158.138 17.3586 157.91 17.306 157.707 17.1983C157.504 17.0905 157.333 16.9314 157.211 16.7369C156.928 16.2862 156.787 15.7609 156.806 15.2292C156.776 14.687 156.927 14.15 157.235 13.7026C157.636 13.2502 158.143 12.9046 158.711 12.697C160.426 12.1093 162.237 11.8441 164.049 11.9149C166.393 11.7651 168.723 12.3722 170.694 13.6461" fill="#FFCD00"/>
<path d="M27.3331 27.2879C27.2235 27.6321 27.0241 27.941 26.7554 28.1831C26.5268 28.3992 26.2567 28.5668 25.9614 28.676C25.6661 28.7852 25.3516 28.8337 25.0371 28.8185C24.7606 28.8555 24.4795 28.8321 24.213 28.7498C23.9466 28.6675 23.7014 28.5283 23.4943 28.3419C22.8378 27.7478 22.2639 27.0687 21.7881 26.3227C20.5733 24.6616 18.4137 22.3058 17.0383 20.5073C17.0666 22.1792 16.9801 24.4422 17.0004 25.9889C17.0098 26.7898 16.9329 26.9244 16.5725 27.2973C16.2121 27.6702 15.8977 27.5665 15.4927 27.6352C15.318 27.6584 15.141 27.6584 14.9663 27.6352C14.2914 27.4858 13.5895 27.8143 13.0671 27.16C12.5448 26.5058 12.4921 26.6377 12.4367 25.3225C12.2194 20.2704 12.4137 13.8317 12.3341 8.70152C12.3192 7.73768 12.3868 7.70269 12.7539 7.27058C13.121 6.83846 13.4287 7.05384 13.8526 6.95557C14.0397 6.93633 14.2288 6.94636 14.4128 6.98523C15.1201 7.14003 15.8045 6.99459 16.3377 7.63267C16.8708 8.27075 16.8883 8.66255 16.9167 9.80678C16.9518 11.2566 16.9424 13.7712 16.8763 15.4135C18.843 12.8141 20.9986 9.74753 22.6345 7.08349C23.1583 6.23138 23.3095 6.46961 23.8993 6.21922C23.9474 6.19487 24.0006 6.18217 24.0545 6.18217C24.1085 6.18217 24.1616 6.19487 24.2097 6.21922C24.8418 6.23273 25.4514 6.45532 25.9428 6.85196C26.1643 7.02851 26.3442 7.25143 26.4697 7.50499C26.5952 7.75855 26.6631 8.03651 26.6689 8.31922C26.7643 8.77211 26.698 9.24404 26.4814 9.6533C26.1372 10.4041 25.7189 11.1187 25.2328 11.7869C24.1692 13.3875 22.5548 16.0219 21.3022 17.7881C22.0324 18.8273 23.2635 20.5585 23.8669 21.4119C24.4702 22.2654 24.3339 22.0473 24.8644 22.7756C25.3948 23.5039 26.2843 24.7019 26.8444 25.4262C27.0296 25.6512 27.1866 25.8981 27.3115 26.1612C27.4017 26.3553 27.4437 26.5681 27.4343 26.7818C27.4419 26.9585 27.4068 27.1344 27.3318 27.2946M9.32683 26.7871C9.01368 27.1533 8.718 27.0133 8.34546 27.0913C8.1665 27.1151 7.9855 27.12 7.8055 27.1061C7.1495 27.0348 6.45568 27.1991 5.9576 26.67C5.45952 26.141 5.39337 26.0145 5.37448 25.025C5.31509 21.9868 5.37451 18.025 5.30972 14.949C5.26505 14.7139 5.2718 14.472 5.32933 14.2397C5.38686 14.0074 5.49393 13.7902 5.64322 13.6029C5.94287 13.1909 6.22633 13.2865 6.62047 13.199C6.80027 13.1811 6.98162 13.1852 7.16043 13.2112C7.83533 13.3054 8.52363 13.1829 9.02036 13.7604C9.25055 13.9994 9.42406 14.2869 9.52802 14.6016C9.63197 14.9164 9.66382 15.2504 9.62111 15.579C9.694 18.62 9.64258 22.5306 9.69658 25.5729C9.71007 26.3362 9.6413 26.4156 9.32815 26.7845M5.60944 7.59906C5.83489 7.38454 6.10184 7.21824 6.39408 7.11036C6.68631 7.00249 6.99771 6.95531 7.30889 6.97175C7.62203 6.96375 7.93355 7.01931 8.22452 7.13501C8.51548 7.25071 8.7797 7.42414 9.00141 7.64483C9.22143 7.86582 9.3936 8.1296 9.50693 8.41979C9.62025 8.70998 9.67235 9.02036 9.66016 9.33155C9.67333 9.98496 9.44671 10.6207 9.02299 11.1192C8.82313 11.3682 8.56812 11.5673 8.2779 11.7012C7.98769 11.8351 7.67035 11.8999 7.35074 11.8906C7.0193 11.8898 6.69228 11.8144 6.39408 11.6701C6.09588 11.5259 5.83419 11.3164 5.62839 11.0573C5.19338 10.5703 4.95316 9.94073 4.95349 9.28849C4.93664 8.97751 4.98644 8.66651 5.0998 8.37632C5.21317 8.08614 5.3874 7.82345 5.61076 7.6058M26.9079 0.00944871L4.34334 2.61023C3.19291 2.61342 2.0904 3.07054 1.2768 3.8817C0.463187 4.69285 0.00453824 5.79214 0.000976562 6.93946V28.074C0.00453648 29.2215 0.463225 30.3209 1.2768 31.1323C2.09037 31.9436 3.19279 32.4011 4.34334 32.4046L26.9079 35.0054C28.0585 35.0022 29.1613 34.5449 29.9749 33.7335C30.7886 32.922 31.247 31.8223 31.2502 30.6748V4.33055C31.247 3.18299 30.7886 2.08341 29.9749 1.27196C29.1613 0.460512 28.0585 0.00319705 26.9079 0" fill="#FFCD00"/>
</g>
<defs>
<clipPath id="clip0_882_35867">
<rect width="173" height="35" fill="white"/>
</clipPath>
</defs>
</svg>
