<svg id="Logo_-_Logo_Various_colours_32px" data-name="Logo - Logo Various colours 32px" xmlns="http://www.w3.org/2000/svg" width="157.747" height="32" viewBox="0 0 157.747 32">
  <g id="Paths">
    <path id="Path_48862" data-name="Path 48862" d="M480.653,51.061a3.429,3.429,0,0,1,4.561,0,3.166,3.166,0,0,1,0,4.391,3.431,3.431,0,0,1-4.561,0,3.166,3.166,0,0,1,0-4.391ZM485.827,72.8a1.787,1.787,0,0,1-.528,1.532,2.052,2.052,0,0,1-1.311.34h-.749a3.873,3.873,0,0,1-2.468-.612,2.621,2.621,0,0,1-.732-2.11V59.656a1.821,1.821,0,0,1,.511-1.532,2.19,2.19,0,0,1,1.327-.374l.749.034a3.874,3.874,0,0,1,2.468.613,2.623,2.623,0,0,1,.732,2.11Z" transform="translate(-443.984 -46.451)" fill="#1d1d1b"/>
    <path id="Path_48863" data-name="Path 48863" d="M616.282,86.847v6.4a1.869,1.869,0,0,1-.63,1.663,2.357,2.357,0,0,1-1.447.384l-.715-.037a3.664,3.664,0,0,1-2.485-.658,3.153,3.153,0,0,1-.715-2.376V74.6a1.9,1.9,0,0,1,.578-1.645,2.445,2.445,0,0,1,1.429-.4l.749.037a3.664,3.664,0,0,1,2.485.658,3.153,3.153,0,0,1,.716,2.376v5.811l6.229-7.712a2.145,2.145,0,0,1,1.77-.95,1.257,1.257,0,0,1,.409.037,3.788,3.788,0,0,1,2.212,1.023,2.768,2.768,0,0,1,.783,2.01,3.8,3.8,0,0,1-.426,1.773,9.182,9.182,0,0,1-1.447,1.919l-4.255,4.569,2.723,3.18.919,1.06,2.314,2.668a3.871,3.871,0,0,1,.579.841,1.886,1.886,0,0,1,.171.8,1.393,1.393,0,0,1-.137.658,2.824,2.824,0,0,1-.748,1.169,3.178,3.178,0,0,1-2.282.877,3.605,3.605,0,0,1-2.025-.548,9.22,9.22,0,0,1-1.957-1.974Z" transform="translate(-564.771 -67.145)" fill="#1d1d1b"/>
    <path id="Path_48864" data-name="Path 48864" d="M900.4,93.491a1.752,1.752,0,0,1-.579,1.549,2.137,2.137,0,0,1-1.327.357l-.681-.034a3.873,3.873,0,0,1-2.468-.612,2.62,2.62,0,0,1-.733-2.11V85.083q0-2.519-2.416-2.519a4.426,4.426,0,0,0-2.28.579V93.491a1.751,1.751,0,0,1-.579,1.549,2.139,2.139,0,0,1-1.328.357l-.681-.034a3.873,3.873,0,0,1-2.468-.612,2.624,2.624,0,0,1-.731-2.11V74.462a1.821,1.821,0,0,1,.51-1.532,2.192,2.192,0,0,1,1.327-.374l.749.034a3.872,3.872,0,0,1,2.467.612,2.624,2.624,0,0,1,.733,2.11v3.336a10.825,10.825,0,0,1,1.565-.426,8.878,8.878,0,0,1,1.771-.187,7.5,7.5,0,0,1,5.31,1.719,6.5,6.5,0,0,1,1.838,4.987Z" transform="translate(-818.186 -67.145)" fill="#1d1d1b"/>
    <path id="Path_48865" data-name="Path 48865" d="M1149.67,161.3a8.956,8.956,0,0,1-6.519,2.332,8.691,8.691,0,0,1-6.433-2.383,8.357,8.357,0,0,1-2.484-6.434,9.853,9.853,0,0,1,.646-3.625,7.84,7.84,0,0,1,1.838-2.808,8.909,8.909,0,0,1,6.433-2.349,10.382,10.382,0,0,1,3.608.613,8.019,8.019,0,0,1,2.859,1.77,7.683,7.683,0,0,1,1.821,2.809,9.992,9.992,0,0,1,.63,3.591A8.624,8.624,0,0,1,1149.67,161.3Zm-8.714-3.319a2.583,2.583,0,0,0,2.229,1.123,2.5,2.5,0,0,0,2.2-1.123,5.579,5.579,0,0,0,.766-3.166,5.405,5.405,0,0,0-.783-3.149,2.766,2.766,0,0,0-4.426,0,6.7,6.7,0,0,0,.017,6.314Z" transform="translate(-1049.637 -135.145)" fill="#1d1d1b"/>
    <path id="Path_48866" data-name="Path 48866" d="M1420.5,91.176a2.232,2.232,0,0,1,.783,1.532,2.041,2.041,0,0,1-.135.681,2.774,2.774,0,0,1-2.894,2.008,3.522,3.522,0,0,1-1.907-.511,8.371,8.371,0,0,1-1.872-1.8l-3.37-4.221v4.629a1.786,1.786,0,0,1-.527,1.532,2.051,2.051,0,0,1-1.31.34h-.75a3.87,3.87,0,0,1-2.467-.612,2.62,2.62,0,0,1-.732-2.11V74.5a1.838,1.838,0,0,1,.528-1.549,2.14,2.14,0,0,1,1.311-.391l.749.034a3.873,3.873,0,0,1,2.468.612,2.623,2.623,0,0,1,.731,2.11V84.3l4.971-5.106a2.273,2.273,0,0,1,1.634-.817l.51.068a3.938,3.938,0,0,1,1.941.97,2.233,2.233,0,0,1,.714,1.651,2.582,2.582,0,0,1-.425,1.481,8.138,8.138,0,0,1-1.481,1.515l-1.021.885-1.974,1.7Z" transform="translate(-1300.502 -67.145)" fill="#1d1d1b"/>
    <path id="Path_48867" data-name="Path 48867" d="M1669.408,93.491a1.752,1.752,0,0,1-.578,1.549,2.141,2.141,0,0,1-1.329.357l-.68-.034a3.873,3.873,0,0,1-2.468-.612,2.622,2.622,0,0,1-.732-2.11V85.083q0-2.519-2.416-2.519a4.429,4.429,0,0,0-2.281.579V93.491a1.752,1.752,0,0,1-.579,1.549,2.138,2.138,0,0,1-1.327.357l-.681-.034a3.873,3.873,0,0,1-2.468-.612,2.62,2.62,0,0,1-.732-2.11V74.462a1.82,1.82,0,0,1,.511-1.532,2.19,2.19,0,0,1,1.327-.374l.749.034a3.874,3.874,0,0,1,2.468.612,2.626,2.626,0,0,1,.731,2.11v3.336a10.833,10.833,0,0,1,1.566-.426,8.872,8.872,0,0,1,1.769-.187,7.493,7.493,0,0,1,5.31,1.719,6.5,6.5,0,0,1,1.838,4.987Z" transform="translate(-1529.838 -67.145)" fill="#1d1d1b"/>
    <path id="Path_48868" data-name="Path 48868" d="M1916.926,147.618a5.448,5.448,0,0,1,2.11,4.646v7.625a2.294,2.294,0,0,1-.391,1.344,3.9,3.9,0,0,1-1.277,1.072,12.05,12.05,0,0,1-6.229,1.328,10.249,10.249,0,0,1-5.837-1.413,4.7,4.7,0,0,1-2.06-4.136,4.607,4.607,0,0,1,1.4-3.608,7.528,7.528,0,0,1,4.323-1.566l4.46-.477V152.2q0-1.839-3.37-1.838a14.106,14.106,0,0,0-3.369.477,4.628,4.628,0,0,1-.988.17,1.2,1.2,0,0,1-1.055-.561,2.425,2.425,0,0,1-.375-1.379,2.243,2.243,0,0,1,.391-1.4,3.314,3.314,0,0,1,1.345-.919,13.371,13.371,0,0,1,4.868-.715A9.965,9.965,0,0,1,1916.926,147.618Zm-4.443,11.676a2.665,2.665,0,0,0,.97-.323v-2.723l-2.451.2q-2.179.136-2.179,1.429,0,1.532,2.314,1.532A7.566,7.566,0,0,0,1912.483,159.294Z" transform="translate(-1761.289 -135.145)" fill="#1d1d1b"/>
    <path id="Path_48869" data-name="Path 48869" d="M24.534,0,3.959,2.377C1.731,2.654,0,4.159,0,6.336V25.664c0,2.177,1.6,3.618,3.959,3.959L24.534,32a3.971,3.971,0,0,0,3.959-3.959V3.959A3.971,3.971,0,0,0,24.534,0ZM5.115,6.945a2.086,2.086,0,0,1,1.549-.574,2.107,2.107,0,0,1,1.543.61,2.074,2.074,0,0,1,.6,1.542,2.453,2.453,0,0,1-.581,1.635,1.884,1.884,0,0,1-1.525.7A2.012,2.012,0,0,1,5.131,10.1a2.43,2.43,0,0,1-.615-1.617A2,2,0,0,1,5.115,6.945ZM8.561,24.5a1.174,1.174,0,0,1-.947.287,5.218,5.218,0,0,1-2.284-.355c-.4-.349-.413-.658-.43-1.562-.054-2.779.005-6.4-.059-9.213a1.523,1.523,0,0,1,.3-1.229,1.2,1.2,0,0,1,.891-.365s1.839-.039,2.291.489.425.782.447,1.685c.067,2.78.021,6.356.068,9.137C8.853,24.078,8.847,24.17,8.561,24.5ZM24.4,25.768a2.719,2.719,0,0,1-1.568.581,2.147,2.147,0,0,1-1.406-.436,11.734,11.734,0,0,1-1.556-1.848c-1.1-1.52-3.075-3.673-4.331-5.318.026,1.529-.053,3.6-.035,5.011a1.856,1.856,0,0,1-.368,1.236c-.228.267-.771.268-1.01.3-.157.014-1.887.219-2.362-.38-.537-.484-.426-1.067-.426-1.766-.2-4.619-.066-10.506-.093-15.2,0-.807.095-1,.355-1.294a1.332,1.332,0,0,1,.924-.31c1.54,0,1.914.091,2.373.627.495.578.5.942.528,1.987.033,1.326.024,3.625-.036,5.126,1.793-2.376,3.758-5.181,5.25-7.616.477-.779,1-.792,1.153-.79a2.687,2.687,0,0,1,1.865.58A1.763,1.763,0,0,1,24.314,7.6a2.332,2.332,0,0,1-.17,1.22,11.39,11.39,0,0,1-1.138,1.95c-.97,1.463-2.442,3.871-3.583,5.486.665.95,1.787,2.533,2.341,3.313s.425.58.909,1.247,1.295,1.761,1.806,2.424a3.274,3.274,0,0,1,.427.672,1.225,1.225,0,0,1,.111.568A2.043,2.043,0,0,1,24.4,25.768Z" transform="translate(0 0)" fill="#ffcd00"/>
  </g>
</svg>
